<svg width="60" height="60" viewBox="0 0 60 60" fill="none" xmlns="http://www.w3.org/2000/svg">
<path d="M18.5518 1.43163C18.0491 0.945471 17.3754 0.676717 16.6763 0.682968C15.9772 0.689218 15.308 0.969574 14.8138 1.46377C14.3192 1.95841 14.0388 2.6272 14.033 3.32628C14.0268 4.02539 14.2955 4.69908 14.7812 5.20217L23.5625 13.9834H8.6665C6.54513 13.9834 4.51028 14.8263 3.00982 16.3267C1.50936 17.8267 0.666504 19.8616 0.666504 21.9834V51.3171C0.666504 53.439 1.50936 55.4734 3.00982 56.9738C4.51028 58.4738 6.54513 59.3171 8.6665 59.3171H51.3339C53.4553 59.3171 55.4902 58.4738 56.9906 56.9738C58.4906 55.4734 59.3339 53.439 59.3339 51.3171V21.9834C59.3339 19.8616 58.4906 17.8267 56.9906 16.3267C55.4902 14.8263 53.4553 13.9834 51.3339 13.9834H36.4379L45.2192 5.20217C45.7049 4.69905 45.9737 4.02537 45.9679 3.32628C45.9616 2.62717 45.6808 1.9584 45.1866 1.46377C44.692 0.969574 44.0232 0.689219 43.3241 0.682968C42.625 0.676718 41.9513 0.945471 41.4487 1.43163L30.0007 12.8796L18.5518 1.43163ZM5.99977 21.9836C5.99977 21.2765 6.28057 20.5979 6.78102 20.0979C7.28102 19.5979 7.95919 19.3171 8.66628 19.3171H51.3337C52.0408 19.3171 52.719 19.5979 53.219 20.0979C53.719 20.5979 54.0002 21.2764 54.0002 21.9836V51.3173C54.0002 52.0245 53.719 52.7026 53.219 53.2026C52.719 53.703 52.0408 53.9838 51.3337 53.9838H8.66628C7.95913 53.9838 7.28102 53.703 6.78102 53.2026C6.28057 52.7026 5.99977 52.0244 5.99977 51.3173V21.9836Z" fill="white"/>
<path d="M15.2081 44.2108C13.9028 44.2108 12.9274 43.8514 12.2821 43.1327C11.6368 42.3994 11.3141 41.3141 11.3141 39.8767V29.9547C11.3141 29.3974 11.4534 28.9794 11.7321 28.7007C12.0254 28.4074 12.4434 28.2607 12.9861 28.2607C13.5141 28.2607 13.9174 28.4074 14.1961 28.7007C14.4894 28.9794 14.6361 29.3974 14.6361 29.9547V39.7447C14.6361 40.3461 14.7608 40.7934 15.0101 41.0867C15.2741 41.3654 15.6188 41.5047 16.0441 41.5047C16.1614 41.5047 16.2714 41.4974 16.3741 41.4827C16.4768 41.4681 16.5868 41.4607 16.7041 41.4607C16.9388 41.4314 17.1001 41.5047 17.1881 41.6807C17.2908 41.8421 17.3421 42.1721 17.3421 42.6707C17.3421 43.1107 17.2541 43.4481 17.0781 43.6827C16.9021 43.9027 16.6308 44.0494 16.2641 44.1228C16.1174 44.1374 15.9488 44.1521 15.7581 44.1668C15.5674 44.1961 15.3841 44.2108 15.2081 44.2108ZM20.9723 44.1448C20.4296 44.1448 20.0116 43.9908 19.7183 43.6827C19.4396 43.3601 19.3003 42.9127 19.3003 42.3407V34.8167C19.3003 34.2301 19.4396 33.7827 19.7183 33.4747C20.0116 33.1521 20.4296 32.9907 20.9723 32.9907C21.5003 32.9907 21.9036 33.1521 22.1823 33.4747C22.4756 33.7827 22.6223 34.2301 22.6223 34.8167V42.3407C22.6223 42.9127 22.4829 43.3601 22.2043 43.6827C21.9256 43.9908 21.5149 44.1448 20.9723 44.1448ZM20.9723 31.1867C20.3563 31.1867 19.8796 31.0474 19.5423 30.7687C19.2196 30.4754 19.0583 30.0647 19.0583 29.5367C19.0583 28.9941 19.2196 28.5834 19.5423 28.3047C19.8796 28.0114 20.3563 27.8647 20.9723 27.8647C21.5883 27.8647 22.0576 28.0114 22.3803 28.3047C22.7029 28.5834 22.8643 28.9941 22.8643 29.5367C22.8643 30.0647 22.7029 30.4754 22.3803 30.7687C22.0576 31.0474 21.5883 31.1867 20.9723 31.1867ZM30.423 44.1668C29.9976 44.1668 29.6236 44.0568 29.301 43.8367C28.9783 43.6021 28.7216 43.2574 28.531 42.8027L25.209 35.1467C25.0476 34.7654 24.989 34.4134 25.033 34.0907C25.077 33.7534 25.231 33.4894 25.495 33.2987C25.7736 33.0934 26.155 32.9907 26.639 32.9907C27.035 32.9907 27.3576 33.0861 27.607 33.2767C27.8563 33.4527 28.0763 33.7974 28.267 34.3107L30.863 40.9107H30.159L32.865 34.2887C33.0703 33.7901 33.2976 33.4527 33.547 33.2767C33.7963 33.0861 34.141 32.9907 34.581 32.9907C34.9623 32.9907 35.263 33.0934 35.483 33.2987C35.7176 33.4894 35.857 33.7461 35.901 34.0687C35.9596 34.3914 35.901 34.7434 35.725 35.1247L32.337 42.8027C32.1463 43.2721 31.8896 43.6167 31.567 43.8367C31.259 44.0568 30.8776 44.1668 30.423 44.1668ZM43.6111 44.2108C42.3351 44.2108 41.2351 43.9834 40.3111 43.5287C39.4018 43.0594 38.6978 42.4067 38.1991 41.5707C37.7151 40.7201 37.4731 39.7227 37.4731 38.5787C37.4731 37.4641 37.7078 36.4887 38.1771 35.6527C38.6465 34.8021 39.2991 34.1421 40.1351 33.6727C40.9858 33.1887 41.9465 32.9467 43.0171 32.9467C43.7945 32.9467 44.4985 33.0787 45.1291 33.3427C45.7598 33.5921 46.3025 33.9587 46.7571 34.4427C47.2118 34.9121 47.5565 35.4914 47.7911 36.1807C48.0258 36.8554 48.1431 37.6107 48.1431 38.4467C48.1431 38.7254 48.0551 38.9381 47.8791 39.0847C47.7031 39.2167 47.4465 39.2827 47.1091 39.2827H40.2011V37.5667H45.7451L45.3931 37.8747C45.3931 37.2734 45.3051 36.7747 45.1291 36.3787C44.9531 35.9681 44.6965 35.6601 44.3591 35.4547C44.0365 35.2494 43.6331 35.1467 43.1491 35.1467C42.6065 35.1467 42.1445 35.2714 41.7631 35.5207C41.3818 35.7701 41.0885 36.1294 40.8831 36.5987C40.6778 37.0681 40.5751 37.6327 40.5751 38.2927V38.4688C40.5751 39.5834 40.8318 40.4047 41.3451 40.9327C41.8731 41.4607 42.6505 41.7247 43.6771 41.7247C44.0291 41.7247 44.4325 41.6807 44.8871 41.5927C45.3418 41.5047 45.7671 41.3654 46.1631 41.1747C46.5005 41.0134 46.8011 40.9621 47.0651 41.0207C47.3291 41.0647 47.5345 41.1821 47.6811 41.3727C47.8278 41.5634 47.9085 41.7834 47.9231 42.0327C47.9525 42.2821 47.9011 42.5314 47.7691 42.7807C47.6371 43.0154 47.4171 43.2134 47.1091 43.3747C46.6105 43.6534 46.0458 43.8587 45.4151 43.9908C44.7991 44.1374 44.1978 44.2108 43.6111 44.2108Z" fill="white"/>
</svg>
